# This file uses centimeters as units for non-parametric coordinates.

mtllib Grass-C.mtl
g default
v -20.512378 -0.290467 10.000001
v 13.601461 0.559419 9.999998
v -3.719051 -0.076570 -20.000000
v -3.719047 0.000000 20.000000
v 13.601459 0.380150 -10.000004
v -21.039559 -0.005975 -9.999998
v -3.719048 0.000000 0.000000
v -23.598446 -0.063052 0.000002
v -13.598446 -0.082918 17.320509
v -3.719047 0.000000 10.000000
v -12.379303 -0.004399 -4.999999
v -12.331503 -0.042002 5.000001
v 6.280955 1.125703 17.320508
v 16.280952 0.000000 -0.000003
v 4.941205 0.101866 -5.000002
v 4.941207 0.102066 4.999999
v 6.280949 0.076999 -17.320511
v -13.719050 -0.036083 -17.320508
v -3.719049 -0.163356 -10.000002
v -16.709432 -0.006787 -7.499999
v -23.037564 0.000000 -5.176379
v -17.960372 -0.063579 2.500001
v -12.379302 0.000000 0.000001
v -17.379302 0.000000 -2.499999
v -22.510387 -0.290467 5.176383
v -17.334008 -0.290467 14.142137
v -12.960373 -0.066006 11.160254
v -17.187063 -0.290467 8.080129
v -8.895427 0.000000 19.318517
v -3.719047 0.000000 15.000000
v -8.049175 0.000000 7.500001
v -8.384110 0.000000 13.080128
v -3.719048 0.000000 5.000000
v -8.049175 0.000000 -2.500000
v -8.049175 0.000000 2.500001
v 1.457335 0.257525 19.318517
v 5.611081 1.125703 11.160252
v 0.611079 0.097298 7.499999
v 0.946017 0.292544 13.080128
v 10.423089 1.125703 14.142134
v 15.599471 0.115230 5.176378
v 10.611079 0.189623 2.499998
v 10.276144 1.125703 8.080125
v 15.599468 0.086966 -5.176384
v 9.271332 0.380150 -7.500002
v 4.941206 0.000000 -0.000002
v 9.941207 0.098792 -2.500003
v 0.611078 0.000000 -2.500001
v 0.611079 0.000000 2.499999
v 10.423086 0.380150 -14.142140
v 1.280950 -0.062306 -13.660257
v 0.611078 0.025873 -7.500001
v 5.276141 0.343305 -10.580128
v 1.457329 -0.020606 -19.318517
v -8.895432 -0.026581 -19.318516
v -8.719049 -0.187215 -13.660256
v -3.719050 -0.165497 -16.160258
v -17.861187 -0.026117 -14.142134
v -8.049176 -0.042561 -7.499999
v -12.714240 -0.062961 -10.580126
v -3.719049 -0.038162 -5.000000
v -8.719050 -0.187215 -13.660253
v -3.719049 -0.163355 -10.000000
v 1.280950 -0.062306 -13.660254
v -3.719050 -0.165497 -16.160256
vt 0.066987 0.250000
vt 0.933013 0.250000
vt 0.500000 1.000000
vt 0.500000 0.000000
vt 0.933013 0.750000
vt 0.066987 0.750000
vt 0.500000 0.500000
vt 0.000000 0.500000
vt 0.250000 0.066987
vt 0.500000 0.250000
vt 0.283494 0.625000
vt 0.283494 0.375000
vt 0.750000 0.066987
vt 1.000000 0.500000
vt 0.716506 0.625000
vt 0.716506 0.375000
vt 0.750000 0.933013
vt 0.250000 0.933013
vt 0.500000 0.750000
vt 0.175240 0.687500
vt 0.017037 0.629409
vt 0.141747 0.437500
vt 0.283494 0.500000
vt 0.158494 0.562500
vt 0.017037 0.370590
vt 0.146447 0.146447
vt 0.266747 0.220994
vt 0.150120 0.297997
vt 0.370591 0.017037
vt 0.500000 0.125000
vt 0.391747 0.312500
vt 0.383373 0.172997
vt 0.500000 0.375000
vt 0.391747 0.562500
vt 0.391747 0.437500
vt 0.629410 0.017037
vt 0.733253 0.220994
vt 0.608253 0.312500
vt 0.616627 0.172997
vt 0.853553 0.146447
vt 0.982963 0.370591
vt 0.858253 0.437500
vt 0.849880 0.297997
vt 0.982963 0.629410
vt 0.824759 0.687500
vt 0.716506 0.500000
vt 0.841506 0.562500
vt 0.608253 0.562500
vt 0.608253 0.437500
vt 0.853553 0.853553
vt 0.625000 0.841506
vt 0.608253 0.687500
vt 0.724880 0.764503
vt 0.629409 0.982963
vt 0.370590 0.982963
vt 0.375000 0.841506
vt 0.500000 0.904006
vt 0.146447 0.853553
vt 0.391747 0.687500
vt 0.275120 0.764503
vt 0.500000 0.625000
vt 0.375000 0.841506
vt 0.500000 0.750000
vt 0.625000 0.841506
vt 0.500000 0.904006
vn -0.003640 0.999985 0.004075
vn 0.002105 0.999983 -0.005470
vn 0.003137 0.999988 -0.003736
vn -0.002894 0.999981 0.005397
vn 0.003612 0.999990 -0.002584
vn -0.002080 0.999986 0.004762
vn -0.011373 0.999654 0.023712
vn -0.017248 0.999570 0.023731
vn -0.018305 0.999776 0.010653
vn -0.018300 0.999140 0.037200
vn -0.026851 0.999514 0.015862
vn 0.000000 1.000000 0.000000
vn -0.041951 0.999118 -0.001593
vn -0.028877 0.999583 -0.000780
vn -0.029816 0.999547 0.004158
vn -0.007282 0.999973 -0.000054
vn -0.007745 0.999970 0.000159
vn -0.027550 0.999616 0.002831
vn -0.026572 0.999646 -0.001511
vn -0.020201 0.999770 -0.007265
vn -0.005770 0.999983 0.001007
vn -0.005617 0.999979 -0.003243
vn -0.002474 0.999996 0.001330
vn -0.000000 0.999997 -0.002544
vn 0.001209 0.999990 -0.004253
vn -0.066285 0.996935 -0.041551
vn -0.115230 0.993021 -0.025137
vn -0.108918 0.993979 0.011914
vn -0.108375 0.994036 0.012111
vn -0.086171 0.995169 -0.047040
vn -0.068240 0.994872 -0.074655
vn 0.050089 0.998740 -0.003061
vn 0.010164 0.996772 -0.079638
vn 0.173826 0.984719 -0.010623
vn 0.075257 0.993722 -0.082788
vn 0.032656 0.998931 -0.032728
vn -0.008589 0.996999 -0.076940
vn 0.022400 0.999419 0.025688
vn 0.000526 0.999856 0.016960
vn 0.011854 0.999605 0.025494
vn -0.002412 0.999570 0.029207
vn -0.024472 0.999225 0.030839
vn -0.016188 0.999869 0.000543
vn -0.007376 0.999966 0.003797
vn -0.007839 0.999948 -0.006506
vn -0.035873 0.999349 -0.003770
vn -0.038410 0.999233 -0.007667
vn -0.025905 0.999418 -0.022213
vn -0.042711 0.998602 -0.031149
vn -0.042168 0.998993 -0.015330
vn -0.015379 0.999602 -0.023666
vn -0.019488 0.999765 0.009512
vn -0.003606 0.999791 0.020137
vn -0.000577 0.999732 0.023154
vn 0.007770 0.999601 0.027160
vn 0.014748 0.999832 0.010873
vn 0.012740 0.999915 0.002685
vn -0.012490 0.999922 -0.000348
vn -0.012490 0.999922 -0.000348
vn -0.012490 0.999922 -0.000348
vn -0.012490 0.999922 -0.000348
vn 0.011589 0.999932 -0.001568
vn 0.010872 0.999907 -0.008289
vn 0.005215 0.999835 -0.017413
vn -0.004653 0.999923 -0.011487
vn -0.057388 -0.994610 0.086362
vn -0.057388 -0.994610 0.086362
vn -0.057388 -0.994610 0.086362
vn -0.057388 -0.994610 0.086362
vn 0.098902 -0.989021 0.109804
vn 0.098902 -0.989021 0.109804
vn 0.098902 -0.989021 0.109804
vn 0.098902 -0.989021 0.109804
vn 0.025096 0.995148 -0.095129
vn 0.025096 0.995148 -0.095129
vn 0.025096 0.995148 -0.095129
vn 0.025096 0.995148 -0.095129
vn -0.061746 0.992155 -0.108698
vn -0.061746 0.992155 -0.108698
vn -0.061746 0.992155 -0.108698
vn -0.061746 0.992155 -0.108698
s 1
g Grass
usemtl initialShadingGroup
f 23/23/1 11/11/2 20/20/3 24/24/4
f 20/20/3 6/6/5 21/21/6 24/24/4
f 21/21/6 8/8/7 22/22/8 24/24/4
f 22/22/8 12/12/9 23/23/1 24/24/4
f 22/22/8 8/8/7 25/25/10 28/28/11
f 25/25/10 1/1/12 26/26/13 28/28/11
f 26/26/13 9/9/14 27/27/15 28/28/11
f 27/27/15 12/12/9 22/22/8 28/28/11
f 27/27/15 9/9/14 29/29/16 32/32/17
f 29/29/16 4/4/18 30/30/19 32/32/17
f 30/30/19 10/10/20 31/31/21 32/32/17
f 31/31/21 12/12/9 27/27/15 32/32/17
f 31/31/21 10/10/20 33/33/22 35/35/23
f 33/33/22 7/7/24 34/34/25 35/35/23
f 34/34/25 11/11/2 23/23/1 35/35/23
f 23/23/1 12/12/9 31/31/21 35/35/23
f 38/38/26 10/10/20 30/30/19 39/39/27
f 30/30/19 4/4/18 36/36/28 39/39/27
f 36/36/28 13/13/29 37/37/30 39/39/27
f 37/37/30 16/16/31 38/38/26 39/39/27
f 37/37/30 13/13/29 40/40/32 43/43/33
f 40/40/32 2/2/34 41/41/35 43/43/33
f 41/41/35 14/14/36 42/42/37 43/43/33
f 42/42/37 16/16/31 37/37/30 43/43/33
f 42/42/37 14/14/36 44/44/38 47/47/39
f 44/44/38 5/5/40 45/45/41 47/47/39
f 45/45/41 15/15/42 46/46/43 47/47/39
f 46/46/43 16/16/31 42/42/37 47/47/39
f 46/46/43 15/15/42 48/48/44 49/49/45
f 48/48/44 7/7/24 33/33/22 49/49/45
f 33/33/22 10/10/20 38/38/26 49/49/45
f 38/38/26 16/16/31 46/46/43 49/49/45
f 52/52/46 15/15/42 45/45/41 53/53/47
f 45/45/41 5/5/40 50/50/48 53/53/47
f 50/50/48 17/17/49 51/51/50 53/53/47
f 51/51/50 19/19/51 52/52/46 53/53/47
f 51/51/50 17/17/49 54/54/52 57/57/53
f 54/54/52 3/3/54 55/55/55 57/57/53
f 55/55/55 18/18/56 56/56/57 57/57/53
s off
f 62/62/58 63/63/59 64/64/60 65/65/61
s 1
f 56/56/57 18/18/56 58/58/62 60/60/63
f 58/58/62 6/6/5 20/20/3 60/60/63
f 20/20/3 11/11/2 59/59/64 60/60/63
f 59/59/64 19/19/51 56/56/57 60/60/63
f 59/59/64 11/11/2 34/34/25 61/61/65
f 34/34/25 7/7/24 48/48/44 61/61/65
f 48/48/44 15/15/42 52/52/46 61/61/65
f 52/52/46 19/19/51 59/59/64 61/61/65
s off
f 56/56/66 19/19/67 63/63/68 62/62/69
f 19/19/70 51/51/71 64/64/72 63/63/73
f 51/51/74 57/57/75 65/65/76 64/64/77
f 57/57/78 56/56/79 62/62/80 65/65/81
