# This file uses centimeters as units for non-parametric coordinates.

mtllib TreeFloor.mtl
g default
v -6.422114 -5.332802 3.707810
v 6.422114 -5.332802 3.707808
v -0.000001 -5.332802 -7.415619
v 0.000000 -5.332802 7.415619
v 6.422114 -5.332802 -3.707811
v -6.422115 -5.332802 -3.707808
v -0.000000 -5.332802 0.000000
v -7.415619 -5.332802 0.000001
v -3.707809 -5.332802 6.422114
v 0.000000 -5.332802 3.707809
v -3.211057 -5.332802 -1.853904
v -3.211057 -5.332802 1.853905
v 3.707810 -5.332802 6.422114
v 7.415619 -5.332802 -0.000001
v 3.211057 -5.332802 -1.853905
v 3.211057 -5.332802 1.853904
v 3.707808 -5.332802 -6.422115
v -3.707810 -5.332802 -6.422114
v -0.000001 -5.332802 -3.707809
v -4.816586 -5.332802 -2.780856
v -7.162938 -5.332802 -1.919303
v -5.313338 -5.332802 0.926953
v -3.211057 -5.332802 0.000000
v -5.064962 -5.332802 -0.926952
v -7.162937 -5.332802 1.919304
v -5.243634 -5.332802 5.243634
v -3.459433 -5.332802 4.138010
v -5.189150 -5.332802 2.995957
v -1.919303 -5.332802 7.162938
v 0.000000 -5.332802 5.561713
v -1.605529 -5.332802 2.780857
v -1.729716 -5.332802 4.849862
v -0.000000 -5.332802 1.853905
v -1.605529 -5.332802 -0.926952
v -1.605529 -5.332802 0.926953
v 1.919304 -5.332802 7.162938
v 3.459433 -5.332802 4.138009
v 1.605529 -5.332802 2.780857
v 1.729717 -5.332802 4.849862
v 5.243634 -5.332802 5.243634
v 7.162938 -5.332802 1.919302
v 5.313338 -5.332802 0.926951
v 5.189150 -5.332802 2.995956
v 7.162937 -5.332802 -1.919305
v 4.816584 -5.332802 -2.780858
v 3.211057 -5.332802 -0.000001
v 5.064961 -5.332802 -0.926953
v 1.605528 -5.332802 -0.926953
v 1.605528 -5.332802 0.926952
v 5.243634 -5.332802 -5.243635
v 1.853904 -5.332802 -5.064962
v 1.605528 -5.332802 -2.780857
v 3.335244 -5.332802 -3.922910
v 1.919302 -5.332802 -7.162938
v -1.919304 -5.332802 -7.162937
v -1.853905 -5.332802 -5.064961
v -0.000001 -5.332802 -5.991914
v -5.243635 -5.332802 -5.243634
v -1.605529 -5.332802 -2.780857
v -3.335246 -5.332802 -3.922909
v -0.000000 -5.332802 -1.853905
v -3.211057 0.037921 0.000000
v -3.211057 0.037921 -1.853904
v -4.816586 0.037921 -2.780856
v -5.064962 0.037921 -0.926952
v -6.422115 0.037921 -3.707808
v -7.162938 0.037921 -1.919303
v -7.415619 0.037921 0.000001
v -5.313338 0.037921 0.926953
v -3.211057 0.037921 1.853905
v -7.162937 0.037921 1.919304
v -5.189150 0.037921 2.995957
v -6.422114 0.037921 3.707810
v -5.243634 0.037921 5.243634
v -3.707809 0.037921 6.422114
v -3.459433 0.037921 4.138010
v -1.919303 0.037921 7.162938
v -1.729716 0.037921 4.849862
v 0.000000 0.037921 7.415619
v 0.000000 0.037921 5.561713
v 0.000000 0.037921 3.707809
v -1.605529 0.037921 2.780857
v -0.000000 0.037921 1.853905
v -1.605529 0.037921 0.926953
v -0.000000 0.037921 -0.000000
v -1.605529 0.037921 -0.926952
v 1.605529 0.037921 2.780857
v 1.729717 0.037921 4.849862
v 1.919304 0.037921 7.162938
v 3.707810 0.037921 6.422114
v 3.459433 0.037921 4.138009
v 3.211057 0.037921 1.853904
v 5.243634 0.037921 5.243634
v 5.189150 0.037921 2.995956
v 6.422114 0.037921 3.707808
v 7.162938 0.037921 1.919302
v 7.415619 0.037921 -0.000001
v 5.313338 0.037921 0.926951
v 7.162937 0.037921 -1.919305
v 5.064961 0.037921 -0.926953
v 6.422114 0.037921 -3.707811
v 4.816584 0.037921 -2.780858
v 3.211057 0.037921 -1.853905
v 3.211057 0.037921 -0.000001
v 1.605528 0.037921 -0.926953
v 1.605528 0.037921 0.926952
v 1.605528 0.037921 -2.780857
v 3.335244 0.037921 -3.922910
v 5.243634 0.037921 -5.243635
v 3.707808 0.037921 -6.422115
v 1.853904 0.037921 -5.064962
v -0.000001 0.037921 -3.707809
v 1.919302 0.037921 -7.162938
v -0.000001 0.037921 -5.991914
v -0.000001 0.037921 -7.415619
v -1.919304 0.037921 -7.162937
v -3.707810 0.037921 -6.422114
v -1.853905 0.037921 -5.064961
v -5.243635 0.037921 -5.243634
v -3.335246 0.037921 -3.922909
v -1.605529 0.037921 -2.780857
v -0.000000 0.037921 -1.853905
vt 0.066987 0.250000
vt 0.933013 0.250000
vt 0.500000 1.000000
vt 0.500000 0.000000
vt 0.933013 0.750000
vt 0.066987 0.750000
vt 0.500000 0.500000
vt 0.000000 0.500000
vt 0.250000 0.066987
vt 0.500000 0.250000
vt 0.283494 0.625000
vt 0.283494 0.375000
vt 0.750000 0.066987
vt 1.000000 0.500000
vt 0.716506 0.625000
vt 0.716506 0.375000
vt 0.750000 0.933013
vt 0.250000 0.933013
vt 0.500000 0.750000
vt 0.175240 0.687500
vt 0.017037 0.629409
vt 0.141747 0.437500
vt 0.283494 0.500000
vt 0.158494 0.562500
vt 0.017037 0.370590
vt 0.146447 0.146447
vt 0.266747 0.220994
vt 0.150120 0.297997
vt 0.370591 0.017037
vt 0.500000 0.125000
vt 0.391747 0.312500
vt 0.383373 0.172997
vt 0.500000 0.375000
vt 0.391747 0.562500
vt 0.391747 0.437500
vt 0.629410 0.017037
vt 0.733253 0.220994
vt 0.608253 0.312500
vt 0.616627 0.172997
vt 0.853553 0.146447
vt 0.982963 0.370591
vt 0.858253 0.437500
vt 0.849880 0.297997
vt 0.982963 0.629410
vt 0.824759 0.687500
vt 0.716506 0.500000
vt 0.841506 0.562500
vt 0.608253 0.562500
vt 0.608253 0.437500
vt 0.853553 0.853553
vt 0.625000 0.841506
vt 0.608253 0.687500
vt 0.724880 0.764503
vt 0.629409 0.982963
vt 0.370590 0.982963
vt 0.375000 0.841506
vt 0.500000 0.904006
vt 0.146447 0.853553
vt 0.391747 0.687500
vt 0.275120 0.764503
vt 0.500000 0.625000
vt 0.283494 0.500000
vt 0.283494 0.625000
vt 0.175240 0.687500
vt 0.158494 0.562500
vt 0.066987 0.750000
vt 0.017037 0.629409
vt 0.000000 0.500000
vt 0.141747 0.437500
vt 0.283494 0.375000
vt 0.017037 0.370590
vt 0.150120 0.297997
vt 0.066987 0.250000
vt 0.146447 0.146447
vt 0.250000 0.066987
vt 0.266747 0.220994
vt 0.370591 0.017037
vt 0.383373 0.172997
vt 0.500000 0.000000
vt 0.500000 0.125000
vt 0.500000 0.250000
vt 0.391747 0.312500
vt 0.500000 0.375000
vt 0.391747 0.437500
vt 0.500000 0.500000
vt 0.391747 0.562500
vt 0.608253 0.312500
vt 0.616627 0.172997
vt 0.629410 0.017037
vt 0.750000 0.066987
vt 0.733253 0.220994
vt 0.716506 0.375000
vt 0.853553 0.146447
vt 0.849880 0.297997
vt 0.933013 0.250000
vt 0.982963 0.370591
vt 1.000000 0.500000
vt 0.858253 0.437500
vt 0.982963 0.629410
vt 0.841506 0.562500
vt 0.933013 0.750000
vt 0.824759 0.687500
vt 0.716506 0.625000
vt 0.716506 0.500000
vt 0.608253 0.562500
vt 0.608253 0.437500
vt 0.608253 0.687500
vt 0.724880 0.764503
vt 0.853553 0.853553
vt 0.750000 0.933013
vt 0.625000 0.841506
vt 0.500000 0.750000
vt 0.629409 0.982963
vt 0.500000 0.904006
vt 0.500000 1.000000
vt 0.370590 0.982963
vt 0.250000 0.933013
vt 0.375000 0.841506
vt 0.146447 0.853553
vt 0.275120 0.764503
vt 0.391747 0.687500
vt 0.500000 0.625000
vt 0.066987 0.750000
vt 0.017037 0.629409
vt 0.000000 0.500000
vt 0.017037 0.370590
vt 0.066987 0.250000
vt 0.146447 0.146447
vt 0.250000 0.066987
vt 0.370591 0.017037
vt 0.500000 0.000000
vt 0.629410 0.017037
vt 0.750000 0.066987
vt 0.853553 0.146447
vt 0.933013 0.250000
vt 0.982963 0.370591
vt 1.000000 0.500000
vt 0.982963 0.629410
vt 0.933013 0.750000
vt 0.853553 0.853553
vt 0.750000 0.933013
vt 0.629409 0.982963
vt 0.500000 1.000000
vt 0.370590 0.982963
vt 0.250000 0.933013
vt 0.146447 0.853553
vn 0.000000 1.000000 0.000000
vn 0.000000 1.000000 -0.000000
vn 0.000000 1.000000 -0.000000
vn 0.000000 1.000000 0.000000
vn 0.000000 1.000000 -0.000000
vn 0.000000 1.000000 0.000000
vn 0.000000 1.000000 0.000000
vn 0.000000 1.000000 -0.000000
vn 0.000000 1.000000 0.000000
vn 0.000000 1.000000 -0.000000
vn 0.000000 1.000000 -0.000000
vn 0.000000 1.000000 0.000000
vn 0.000000 1.000000 -0.000000
vn 0.000000 1.000000 -0.000000
vn 0.000000 1.000000 -0.000000
vn 0.000000 1.000000 -0.000000
vn 0.000000 1.000000 0.000000
vn 0.000000 1.000000 -0.000000
vn 0.000000 1.000000 0.000000
vn 0.000000 1.000000 0.000000
vn 0.000000 1.000000 -0.000000
vn 0.000000 1.000000 -0.000000
vn 0.000000 1.000000 0.000000
vn 0.000000 1.000000 0.000000
vn 0.000000 1.000000 0.000000
vn 0.000000 1.000000 -0.000000
vn 0.000000 1.000000 -0.000000
vn 0.000000 1.000000 -0.000000
vn 0.000000 1.000000 -0.000000
vn 0.000000 1.000000 -0.000000
vn 0.000000 1.000000 -0.000000
vn 0.000000 1.000000 -0.000000
vn 0.000000 1.000000 -0.000000
vn 0.000000 1.000000 -0.000000
vn 0.000000 1.000000 -0.000000
vn 0.000000 1.000000 0.000000
vn 0.000000 1.000000 -0.000000
vn 0.000000 1.000000 0.000000
vn 0.000000 1.000000 0.000000
vn 0.000000 1.000000 -0.000000
vn 0.000000 1.000000 -0.000000
vn 0.000000 1.000000 0.000000
vn 0.000000 1.000000 0.000000
vn 0.000000 1.000000 0.000000
vn 0.000000 1.000000 -0.000000
vn 0.000000 1.000000 0.000000
vn 0.000000 1.000000 -0.000000
vn 0.000000 1.000000 -0.000000
vn 0.000000 1.000000 0.000000
vn 0.000000 1.000000 0.000000
vn 0.000000 1.000000 0.000000
vn 0.000000 1.000000 0.000000
vn 0.000000 1.000000 0.000000
vn 0.000000 1.000000 0.000000
vn 0.000000 1.000000 0.000000
vn 0.000000 1.000000 0.000000
vn 0.000000 1.000000 0.000000
vn 0.000000 1.000000 -0.000000
vn 0.000000 1.000000 -0.000000
vn 0.000000 1.000000 -0.000000
vn 0.000000 1.000000 0.000000
vn 0.000000 -1.000000 0.000000
vn 0.000000 -1.000000 0.000000
vn 0.000000 -1.000000 0.000000
vn 0.000000 -1.000000 0.000000
vn 0.000000 -1.000000 0.000000
vn 0.000000 -1.000000 0.000000
vn 0.000000 -1.000000 0.000000
vn 0.000000 -1.000000 0.000000
vn 0.000000 -1.000000 0.000000
vn 0.000000 -1.000000 0.000000
vn 0.000000 -1.000000 0.000000
vn 0.000000 -1.000000 0.000000
vn 0.000000 -1.000000 0.000000
vn 0.000000 -1.000000 0.000000
vn 0.000000 -1.000000 0.000000
vn 0.000000 -1.000000 0.000000
vn 0.000000 -1.000000 0.000000
vn 0.000000 -1.000000 0.000000
vn 0.000000 -1.000000 0.000000
vn 0.000000 -1.000000 0.000000
vn 0.000000 -1.000000 0.000000
vn 0.000000 -1.000000 0.000000
vn 0.000000 -1.000000 0.000000
vn 0.000000 -1.000000 0.000000
vn 0.000000 -1.000000 0.000000
vn 0.000000 -1.000000 0.000000
vn 0.000000 -1.000000 0.000000
vn 0.000000 -1.000000 0.000000
vn 0.000000 -1.000000 0.000000
vn 0.000000 -1.000000 0.000000
vn 0.000000 -1.000000 0.000000
vn 0.000000 -1.000000 0.000000
vn 0.000000 -1.000000 0.000000
vn 0.000000 -1.000000 0.000000
vn 0.000000 -1.000000 0.000000
vn 0.000000 -1.000000 0.000000
vn 0.000000 -1.000000 0.000000
vn 0.000000 -1.000000 0.000000
vn 0.000000 -1.000000 0.000000
vn 0.000000 -1.000000 0.000000
vn 0.000000 -1.000000 0.000000
vn 0.000000 -1.000000 0.000000
vn 0.000000 -1.000000 0.000000
vn 0.000000 -1.000000 0.000000
vn 0.000000 -1.000000 0.000000
vn 0.000000 -1.000000 0.000000
vn 0.000000 -1.000000 0.000000
vn 0.000000 -1.000000 0.000000
vn 0.000000 -1.000000 0.000000
vn 0.000000 -1.000000 0.000000
vn 0.000000 -1.000000 0.000000
vn 0.000000 -1.000000 0.000000
vn 0.000000 -1.000000 0.000000
vn 0.000000 -1.000000 0.000000
vn 0.000000 -1.000000 0.000000
vn 0.000000 -1.000000 0.000000
vn 0.000000 -1.000000 0.000000
vn 0.000000 -1.000000 0.000000
vn 0.000000 -1.000000 0.000000
vn 0.000000 -1.000000 0.000000
vn 0.000000 -1.000000 0.000000
vn -0.866025 0.000000 -0.500000
vn -0.965926 0.000000 -0.258819
vn -0.965926 0.000000 -0.258819
vn -0.866025 0.000000 -0.500000
vn -1.000000 0.000000 0.000000
vn -1.000000 0.000000 0.000000
vn -0.965926 0.000000 0.258819
vn -0.965926 0.000000 0.258819
vn -0.866025 0.000000 0.500000
vn -0.866025 0.000000 0.500000
vn -0.707107 0.000000 0.707107
vn -0.707107 0.000000 0.707107
vn -0.500000 0.000000 0.866025
vn -0.500000 0.000000 0.866025
vn -0.258819 0.000000 0.965926
vn -0.258819 0.000000 0.965926
vn 0.000000 0.000000 1.000000
vn 0.000000 0.000000 1.000000
vn 0.258819 0.000000 0.965926
vn 0.258819 0.000000 0.965926
vn 0.500000 0.000000 0.866025
vn 0.500000 0.000000 0.866025
vn 0.707107 0.000000 0.707107
vn 0.707107 0.000000 0.707107
vn 0.866025 0.000000 0.500000
vn 0.866025 0.000000 0.500000
vn 0.965926 0.000000 0.258819
vn 0.965926 0.000000 0.258819
vn 1.000000 0.000000 -0.000000
vn 1.000000 0.000000 -0.000000
vn 0.965926 0.000000 -0.258819
vn 0.965926 0.000000 -0.258819
vn 0.866025 0.000000 -0.500000
vn 0.866025 0.000000 -0.500000
vn 0.707107 0.000000 -0.707107
vn 0.707107 0.000000 -0.707107
vn 0.500000 0.000000 -0.866025
vn 0.500000 0.000000 -0.866025
vn 0.258819 0.000000 -0.965926
vn 0.258819 0.000000 -0.965926
vn -0.000000 0.000000 -1.000000
vn -0.000000 0.000000 -1.000000
vn -0.258819 0.000000 -0.965926
vn -0.258819 0.000000 -0.965926
vn -0.500000 0.000000 -0.866025
vn -0.500000 0.000000 -0.866025
vn -0.707107 0.000000 -0.707107
vn -0.707107 0.000000 -0.707107
s 1
g MainFloor
usemtl lambert2SG
f 62/23/1 63/11/2 64/20/3 65/24/4
f 64/20/3 66/123/5 67/124/6 65/24/4
f 67/124/6 68/125/7 69/22/8 65/24/4
f 69/22/8 70/12/9 62/23/1 65/24/4
f 69/22/8 68/125/7 71/126/10 72/28/11
f 71/126/10 73/127/12 74/128/13 72/28/11
f 74/128/13 75/129/14 76/27/15 72/28/11
f 76/27/15 70/12/9 69/22/8 72/28/11
f 76/27/15 75/129/14 77/130/16 78/32/17
f 77/130/16 79/131/18 80/30/19 78/32/17
f 80/30/19 81/10/20 82/31/21 78/32/17
f 82/31/21 70/12/9 76/27/15 78/32/17
f 82/31/21 81/10/20 83/33/22 84/35/23
f 83/33/22 85/7/24 86/34/25 84/35/23
f 86/34/25 63/11/2 62/23/1 84/35/23
f 62/23/1 70/12/9 82/31/21 84/35/23
f 87/38/26 81/10/20 80/30/19 88/39/27
f 80/30/19 79/131/18 89/132/28 88/39/27
f 89/132/28 90/133/29 91/37/30 88/39/27
f 91/37/30 92/16/31 87/38/26 88/39/27
f 91/37/30 90/133/29 93/134/32 94/43/33
f 93/134/32 95/135/34 96/136/35 94/43/33
f 96/136/35 97/137/36 98/42/37 94/43/33
f 98/42/37 92/16/31 91/37/30 94/43/33
f 98/42/37 97/137/36 99/138/38 100/47/39
f 99/138/38 101/139/40 102/45/41 100/47/39
f 102/45/41 103/15/42 104/46/43 100/47/39
f 104/46/43 92/16/31 98/42/37 100/47/39
f 104/46/43 103/15/42 105/48/44 106/49/45
f 105/48/44 85/7/24 83/33/22 106/49/45
f 83/33/22 81/10/20 87/38/26 106/49/45
f 87/38/26 92/16/31 104/46/43 106/49/45
f 107/52/46 103/15/42 102/45/41 108/53/47
f 102/45/41 101/139/40 109/140/48 108/53/47
f 109/140/48 110/141/49 111/51/50 108/53/47
f 111/51/50 112/19/51 107/52/46 108/53/47
f 111/51/50 110/141/49 113/142/52 114/57/53
f 113/142/52 115/143/54 116/144/55 114/57/53
f 116/144/55 117/145/56 118/56/57 114/57/53
f 118/56/57 112/19/51 111/51/50 114/57/53
f 118/56/57 117/145/56 119/146/58 120/60/59
f 119/146/58 66/123/5 64/20/3 120/60/59
f 64/20/3 63/11/2 121/59/60 120/60/59
f 121/59/60 112/19/51 118/56/57 120/60/59
f 121/59/60 63/11/2 86/34/25 122/61/61
f 86/34/25 85/7/24 105/48/44 122/61/61
f 105/48/44 103/15/42 107/52/46 122/61/61
f 107/52/46 112/19/51 121/59/60 122/61/61
s 2
f 23/62/62 24/65/63 20/64/64 11/63/65
f 20/64/64 24/65/63 21/67/66 6/66/67
f 21/67/66 24/65/63 22/69/68 8/68/69
f 22/69/68 24/65/63 23/62/62 12/70/70
f 22/69/68 28/72/71 25/71/72 8/68/69
f 25/71/72 28/72/71 26/74/73 1/73/74
f 26/74/73 28/72/71 27/76/75 9/75/76
f 27/76/75 28/72/71 22/69/68 12/70/70
f 27/76/75 32/78/77 29/77/78 9/75/76
f 29/77/78 32/78/77 30/80/79 4/79/80
f 30/80/79 32/78/77 31/82/81 10/81/82
f 31/82/81 32/78/77 27/76/75 12/70/70
f 31/82/81 35/84/83 33/83/84 10/81/82
f 33/83/84 35/84/83 34/86/85 7/85/86
f 34/86/85 35/84/83 23/62/62 11/63/65
f 23/62/62 35/84/83 31/82/81 12/70/70
f 38/87/87 39/88/88 30/80/79 10/81/82
f 30/80/79 39/88/88 36/89/89 4/79/80
f 36/89/89 39/88/88 37/91/90 13/90/91
f 37/91/90 39/88/88 38/87/87 16/92/92
f 37/91/90 43/94/93 40/93/94 13/90/91
f 40/93/94 43/94/93 41/96/95 2/95/96
f 41/96/95 43/94/93 42/98/97 14/97/98
f 42/98/97 43/94/93 37/91/90 16/92/92
f 42/98/97 47/100/99 44/99/100 14/97/98
f 44/99/100 47/100/99 45/102/101 5/101/102
f 45/102/101 47/100/99 46/104/103 15/103/104
f 46/104/103 47/100/99 42/98/97 16/92/92
f 46/104/103 49/106/105 48/105/106 15/103/104
f 48/105/106 49/106/105 33/83/84 7/85/86
f 33/83/84 49/106/105 38/87/87 10/81/82
f 38/87/87 49/106/105 46/104/103 16/92/92
f 52/107/107 53/108/108 45/102/101 15/103/104
f 45/102/101 53/108/108 50/109/109 5/101/102
f 50/109/109 53/108/108 51/111/110 17/110/111
f 51/111/110 53/108/108 52/107/107 19/112/112
f 51/111/110 57/114/113 54/113/114 17/110/111
f 54/113/114 57/114/113 55/116/115 3/115/116
f 55/116/115 57/114/113 56/118/117 18/117/118
f 56/118/117 57/114/113 51/111/110 19/112/112
f 56/118/117 60/120/119 58/119/120 18/117/118
f 58/119/120 60/120/119 20/64/64 6/66/67
f 20/64/64 60/120/119 59/121/121 11/63/65
f 59/121/121 60/120/119 56/118/117 19/112/112
f 59/121/121 61/122/122 34/86/85 11/63/65
f 34/86/85 61/122/122 48/105/106 7/85/86
f 48/105/106 61/122/122 52/107/107 15/103/104
f 52/107/107 61/122/122 59/121/121 19/112/112
s 3
f 6/6/123 21/21/124 67/124/125 66/123/126
f 21/21/124 8/8/127 68/125/128 67/124/125
f 8/8/127 25/25/129 71/126/130 68/125/128
f 25/25/129 1/1/131 73/127/132 71/126/130
f 1/1/131 26/26/133 74/128/134 73/127/132
f 26/26/133 9/9/135 75/129/136 74/128/134
f 9/9/135 29/29/137 77/130/138 75/129/136
f 29/29/137 4/4/139 79/131/140 77/130/138
f 4/4/139 36/36/141 89/132/142 79/131/140
f 36/36/141 13/13/143 90/133/144 89/132/142
f 13/13/143 40/40/145 93/134/146 90/133/144
f 40/40/145 2/2/147 95/135/148 93/134/146
f 2/2/147 41/41/149 96/136/150 95/135/148
f 41/41/149 14/14/151 97/137/152 96/136/150
f 14/14/151 44/44/153 99/138/154 97/137/152
f 44/44/153 5/5/155 101/139/156 99/138/154
f 5/5/155 50/50/157 109/140/158 101/139/156
f 50/50/157 17/17/159 110/141/160 109/140/158
f 17/17/159 54/54/161 113/142/162 110/141/160
f 54/54/161 3/3/163 115/143/164 113/142/162
f 3/3/163 55/55/165 116/144/166 115/143/164
f 55/55/165 18/18/167 117/145/168 116/144/166
f 18/18/167 58/58/169 119/146/170 117/145/168
f 58/58/169 6/6/123 66/123/126 119/146/170
